<svg width="41" height="39" viewBox="0 0 41 39" fill="none" xmlns="http://www.w3.org/2000/svg">
<rect x="0.726197" y="1.45227" width="38.8382" height="36.8465" rx="18.4232" stroke="white" stroke-opacity="0.2" stroke-width="0.995851"/>
<g clip-path="url(#clip0_3_1217)">
<path fill-rule="evenodd" clip-rule="evenodd" d="M18.1023 15.9924C18.1023 14.8031 19.0663 13.839 20.2556 13.839C21.4449 13.839 22.4089 14.8031 22.4089 15.9924C22.4089 17.1817 21.4449 18.1457 20.2556 18.1457C19.0663 18.1457 18.1023 17.1817 18.1023 15.9924ZM20.2556 12.78C18.4815 12.78 17.0432 14.2183 17.0432 15.9924C17.0432 17.7665 18.4815 19.2048 20.2556 19.2048C22.0297 19.2048 23.468 17.7665 23.468 15.9924C23.468 14.2183 22.0297 12.78 20.2556 12.78ZM14.9958 24.6057C14.9958 22.6447 16.6592 20.9698 18.7024 20.9698H21.8794C23.9285 20.9698 25.586 22.5799 25.586 24.6057V25.2086C25.5295 25.6163 25.2222 25.9119 24.8447 25.9119H15.6665C15.3029 25.9119 14.9958 25.6346 14.9958 25.2412V24.6057ZM18.7024 19.9108C16.0859 19.9108 13.9368 22.0483 13.9368 24.6057V25.2412C13.9368 26.2598 14.7592 26.9709 15.6665 26.9709H24.8447C25.8713 26.9709 26.5474 26.1495 26.6418 25.2997C26.6439 25.2802 26.645 25.2607 26.645 25.2412V24.6057C26.645 21.9719 24.4901 19.9108 21.8794 19.9108H18.7024Z" fill="white"/>
</g>
<defs>
<clipPath id="clip0_3_1217">
<rect width="14.9378" height="14.9378" fill="white" transform="translate(12.6764 12.4066)"/>
</clipPath>
</defs>
</svg>
